<svg xmlns="http://www.w3.org/2000/svg" width="37" height="47" viewBox="0 0 37 47">
    <g fill="#A49F9F" fill-rule="evenodd">
        <path fill-rule="nonzero" d="M25.626.253H11.713l-1.56 2.527L.34 5.337v41.577H37V5.337l-9.813-2.573-1.56-2.511zm-3.325 10.9l-2.676-1.515 7.355-5.883 1.054.278-5.733 7.12zm6.807-6.842l.852.222-5.748 7.697-1.014-.571 5.91-7.348zM12.276 1.279h12.783l1.135 1.824-7.527 6.019-7.516-6.034 1.125-1.81zM10.355 3.77l7.41 5.928-2.859 1.597-5.62-7.252 1.069-.273zm3.66 8.04l-.781.435-5.768-7.732.755-.197 5.793 7.495zM1.342 6.136l5.069-1.329 6.543 8.738 5.205-2.931v35.29H1.353l-.01-39.768zm34.643 39.768H19.26v-35.29l5.231 2.931 6.528-8.733 4.967 1.304v39.788z"/>
        <path fill-rule="nonzero" d="M22.808 24.723a5.274 5.274 0 0 0 5.28 5.103c2.852 0 5.19-2.26 5.278-5.103v-6.696H22.808v6.696zm9.544-5.685v5.685a4.262 4.262 0 0 1-4.265 4.109 4.262 4.262 0 0 1-4.265-4.109v-2.764h7.01v-1.011h-7.01v-1.91h8.53z"/>
        <ellipse cx="16.386" cy="15.636" rx="1" ry="1"/>
        <ellipse cx="16.386" cy="21.195" rx="1" ry="1"/>
        <path d="M16.787 25.89h-.066a.945.945 0 0 0-.33-.06.949.949 0 1 0-.481 1.766.955.955 0 0 0 1.145-.129.943.943 0 0 0-.278-1.516l.01-.06zM16.584 31.384a.956.956 0 0 0-.094 1.905.956.956 0 0 0 .099-1.905h-.005zM16.386 36.918a.948.948 0 1 0-.674 1.607.94.94 0 0 0 1.014.192.95.95 0 0 0-.36-1.835l.02.036zM16.386 42.477a.948.948 0 1 0-.603 1.683.944.944 0 0 0 .603.222.954.954 0 0 0 .956-.952.954.954 0 0 0-.956-.953z"/>
    </g>
</svg>
