<svg xmlns="http://www.w3.org/2000/svg" width="40" height="40" viewBox="0 0 40 40">
    <g fill="#A49F9F" fill-rule="evenodd">
        <path fill-rule="nonzero" d="M21.29 2.58c-2.047 0-4.049.33-5.964.975A4.755 4.755 0 0 0 10.733 0a4.712 4.712 0 0 0-2.991 1.06A4.715 4.715 0 0 0 4.75 0 4.756 4.756 0 0 0 0 4.751a4.72 4.72 0 0 0 1.392 3.36l3.746 3.745a18.674 18.674 0 0 0-2.557 9.434C2.58 31.606 10.974 40 21.29 40 31.606 40 40 31.606 40 21.29S31.607 2.58 21.29 2.58zm-20 2.171a3.464 3.464 0 0 1 3.461-3.46c.924 0 1.794.36 2.448 1.014l.543.541.544-.542a3.44 3.44 0 0 1 2.447-1.014 3.464 3.464 0 0 1 3.46 3.461c0 .924-.36 1.794-1.013 2.447l-5.438 5.438-5.438-5.438A3.437 3.437 0 0 1 1.29 4.751zm6.452 9.71l6.35-6.35a4.716 4.716 0 0 0 1.386-3.245 17.347 17.347 0 0 1 5.812-.995c3.765 0 7.252 1.204 10.104 3.243l-3.142 3.665c-.329.384-.51.874-.51 1.38v3.827c0 .71.353 1.37.943 1.762l2.559 1.707a.824.824 0 0 1 .369.689v4.28c0 .26-.124.508-.332.664l-1.598 1.198a.83.83 0 0 1-.497.166h-1.478a.824.824 0 0 1-.586-.243l-.108-.108a2.119 2.119 0 0 0-3.153 2.822l1.26 1.575c.173.216.384.394.627.53l5.218 2.898c.313.175.67.268 1.029.268h.985a17.467 17.467 0 0 1-4.3 2.866l-.34-.848a3.196 3.196 0 0 0-2.98-2.018h-.397c-.79 0-1.49-.474-1.784-1.208-.49-1.225-1.66-2.018-3.016-2.018a3.228 3.228 0 0 0-2.754 1.558l-.822 1.371c-.3.5-.458 1.07-.458 1.653v2.379a17.327 17.327 0 0 1-2.58-1.04v-1.78c0-.763-.297-1.479-.837-2.019l-.641-.641a1.554 1.554 0 0 1-.458-1.106 1.57 1.57 0 0 1 1.134-1.503l1.312-.375a2.866 2.866 0 0 0 2.07-2.744v-2.075c0-.646-.222-1.279-.625-1.783l-1.613-2.017a1.563 1.563 0 0 1-.343-.976v-.887a2.857 2.857 0 0 0-2.853-2.854H9.92c-.207 0-.415.023-.619.067l-4.958 1.102c.368-1.57.953-3.081 1.743-4.494l1.656 1.657zM3.87 21.29c0-.879.072-1.75.203-2.61l5.506-1.224c.112-.025.226-.038.34-.038h.775c.862 0 1.563.702 1.563 1.564v.887c0 .646.222 1.279.625 1.784l1.613 2.016c.221.275.343.622.343.976v2.075a1.57 1.57 0 0 1-1.134 1.504l-1.313.374a2.866 2.866 0 0 0-2.07 2.744c0 .762.297 1.478.837 2.018l.641.642c.295.295.458.688.458 1.105v1.072c-5.024-3.06-8.387-8.589-8.387-14.89zm13.548 16.98V35.55c0-.348.095-.69.274-.988l.822-1.371a1.947 1.947 0 0 1 1.684-.933c.79 0 1.49.474 1.783 1.207a3.196 3.196 0 0 0 2.981 2.019h.397c.79 0 1.49.473 1.783 1.207l.35.874a17.332 17.332 0 0 1-10.074.706zm16.775-5.291v-.077h-2.2a.835.835 0 0 1-.402-.104L26.374 29.9a.815.815 0 0 1-.245-.207l-1.26-1.576a.826.826 0 0 1 .277-1.258.828.828 0 0 1 .956.155l.108.108c.4.4.932.62 1.498.62h1.48c.455 0 .906-.15 1.27-.423l1.599-1.198a2.13 2.13 0 0 0 .847-1.696v-4.28c0-.711-.353-1.37-.943-1.763l-2.56-1.707a.827.827 0 0 1-.369-.69v-3.828c0-.198.071-.39.2-.539L32.419 7.9c3.84 3.199 6.29 8.014 6.29 13.39 0 4.495-1.71 8.596-4.515 11.69z"/>
        <path d="M32.258 28.387h1.29v1.29h-1.29z"/>
        <path fill-rule="nonzero" d="M18.175 20.526a2.801 2.801 0 0 0 2.428 1.41h2.408a2.798 2.798 0 0 0 2.795-2.796c0-.875-.418-1.711-1.118-2.237l-.86-.645a1.513 1.513 0 0 1-.602-1.204v-.646a2.798 2.798 0 0 0-2.796-2.795h-1.505a2.799 2.799 0 0 0-2.796 2.795v1.795c0 .485.127.965.368 1.387l1.678 2.936zm-.756-6.118c0-.83.676-1.505 1.506-1.505h1.505c.83 0 1.505.676 1.505 1.505v.646c0 .874.419 1.71 1.119 2.236l.86.645a1.507 1.507 0 0 1-.903 2.71h-2.408c-.538 0-1.04-.29-1.307-.759l-1.678-2.936a1.498 1.498 0 0 1-.199-.747v-1.795z"/>
        <path d="M8.387 19.355h1.29v1.29h-1.29z"/>
    </g>
</svg>
