<svg xmlns="http://www.w3.org/2000/svg" width="35" height="33" viewBox="0 0 35 33">
    <g fill="#A49F9F" fill-rule="nonzero">
        <path d="M34.122 31.538h-1.328v-15.4a.459.459 0 0 0-.003-.055c-.117-1.053-.93-3.046-3.17-3.046h-4.538V8.044a.5.5 0 1 0-1 0v4.993h-6.021V8.044a.5.5 0 1 0-1 0v4.993h-6V8.044a.5.5 0 1 0-1 0v4.993H5.503c-2.24 0-3.054 1.993-3.17 3.046a.459.459 0 0 0-.004.056v15.4H.878a.5.5 0 1 0 0 1h33.244a.5.5 0 1 0 0-1zm-28.619-17.5h24.118c1.814 0 2.139 1.887 2.173 2.132v4.061a1.81 1.81 0 0 1-1.72 1.406c-.604 0-1.06-.752-1.545-1.55-.608-1-1.298-2.136-2.573-2.136-1.257 0-1.93 1.107-2.523 2.083-.589.968-1.023 1.603-1.67 1.603-.62 0-1.01-.576-1.577-1.526-.604-1.012-1.29-2.16-2.686-2.16-1.406 0-2.078 1.205-2.618 2.173-.526.941-.89 1.513-1.501 1.513-.693 0-1.184-.77-1.704-1.586-.627-.985-1.337-2.1-2.633-2.1-1.334 0-1.98 1.157-2.549 2.178-.523.938-.88 1.508-1.425 1.508a1.786 1.786 0 0 1-1.74-.902v-4.566c.033-.25.346-2.132 2.173-2.132zm-2.174 8.13a3.125 3.125 0 0 0 1.74.47c1.172 0 1.77-1.075 2.3-2.022.56-1.006.98-1.665 1.675-1.665.747 0 1.254.795 1.79 1.637.612.96 1.305 2.05 2.547 2.05 1.243 0 1.844-1.077 2.374-2.027.576-1.033.981-1.66 1.745-1.66.773 0 1.206.632 1.828 1.673.563.943 1.202 2.013 2.436 2.013 1.257 0 1.93-1.107 2.523-2.083.589-.968 1.023-1.603 1.669-1.603.713 0 1.201.804 1.719 1.656.578.952 1.233 2.03 2.4 2.03.63.01 1.24-.21 1.72-.617v9.518H3.328v-9.37zM10.143.689c-.265.406-1.558 2.49-.94 3.632.28.474.812.74 1.359.682a1.405 1.405 0 0 0 1.358-.682c.619-1.142-.674-3.226-.94-3.632a.52.52 0 0 0-.837 0zm.898 3.156c-.07.13-.3.158-.479.158-.18 0-.408-.027-.479-.158-.175-.323.107-1.144.48-1.88.372.735.654 1.556.478 1.88zM17.143.689c-.265.406-1.558 2.49-.94 3.632.28.474.812.74 1.359.682a1.405 1.405 0 0 0 1.358-.682c.618-1.142-.674-3.226-.94-3.632a.52.52 0 0 0-.837 0zm.898 3.156c-.07.13-.3.158-.48.158-.179 0-.407-.027-.478-.158-.175-.323.107-1.144.48-1.88.371.735.653 1.556.478 1.88zM24.164.689c-.266.406-1.558 2.49-.94 3.632a1.694 1.694 0 0 0 2.717 0c.618-1.142-.674-3.226-.94-3.632a.52.52 0 0 0-.837 0zm.897 3.156c-.07.13-.299.158-.479.158-.179 0-.408-.027-.479-.158-.175-.323.108-1.144.48-1.88.372.735.654 1.556.479 1.88z"/>
    </g>
</svg>
