<svg xmlns="http://www.w3.org/2000/svg" width="37" height="37" viewBox="0 0 37 37">
    <g fill="#A49F9F" fill-rule="evenodd">
        <path fill-rule="nonzero" d="M35.135 8.14l-4.33-2.078V4.514a.545.545 0 0 0-.545-.545h-2.496a.546.546 0 0 0-.522.384L19.932.844a3.286 3.286 0 0 0-2.863 0L9.758 4.353a.543.543 0 0 0-.52-.384H6.741a.545.545 0 0 0-.546.545v1.548L1.868 8.14a2.656 2.656 0 0 0-1.5 2.383V32.95a3.538 3.538 0 0 0 3.534 3.534h29.199a3.538 3.538 0 0 0 3.533-3.534V10.523c0-1.01-.588-1.946-1.5-2.383zm-.472.984c.534.257.88.807.88 1.4v9.737l-.266.107-4.472 1.82V7.271l3.858 1.852zM17.539 1.826a2.211 2.211 0 0 1 1.922 0l7.51 3.606-.013.024-.028.044-.032.049a2.605 2.605 0 0 1-.052.073l-.026.034-.045.053-.025.028c-.048.055-.1.107-.155.156l-.008.007a1.835 1.835 0 0 1-.724.39l-.006.003a1.826 1.826 0 0 1-.263.05l-.067.008a.617.617 0 0 1-.048.003l-.07.004h-.037a1.847 1.847 0 0 1-1.844-1.845.545.545 0 0 0-.546-.545H20.89a.545.545 0 0 0-.545.545 1.846 1.846 0 0 1-1.845 1.845 1.848 1.848 0 0 1-1.845-1.845.544.544 0 0 0-.545-.545h-2.094a.545.545 0 0 0-.545.545 1.848 1.848 0 0 1-1.846 1.845h-.036l-.07-.004a.618.618 0 0 1-.048-.003l-.068-.007-.04-.006a2.015 2.015 0 0 1-.228-.048 1.824 1.824 0 0 1-.636-.319h-.001a2.127 2.127 0 0 1-.088-.07l-.008-.008a1.99 1.99 0 0 1-.155-.156c-.01-.009-.016-.019-.024-.028a1.341 1.341 0 0 1-.043-.053l-.028-.034c-.017-.025-.036-.048-.052-.073a.63.63 0 0 1-.031-.049c-.01-.013-.019-.03-.029-.044l-.013-.024 7.513-3.606zM7.286 5.06h1.456c.014.086.035.17.06.252v.002c.033.122.075.24.125.356 0 .002.001.003.003.005l.05.109c0 .004.003.007.005.01.016.034.032.067.05.1l.01.017.05.09a.095.095 0 0 1 .014.023l.05.079c.006.011.013.02.02.034l.045.065.03.04.04.053.04.05c.01.014.02.027.032.04l.05.06.022.025.064.07.01.01c.4.415.922.713 1.508.838l.02.003c.03.007.06.013.092.018l.045.007.072.01.078.01c.014 0 .028.003.04.003a2.939 2.939 0 0 0 3.142-2.377h1.104a2.942 2.942 0 0 0 2.886 2.39 2.939 2.939 0 0 0 2.884-2.39h1.103a2.941 2.941 0 0 0 3.144 2.377c.013 0 .028-.002.042-.004l.078-.008c.022-.004.047-.008.07-.01l.046-.008.092-.018.02-.003a2.939 2.939 0 0 0 1.507-.839l.01-.01c.022-.022.041-.046.064-.07.007-.008.015-.015.021-.024l.051-.06.033-.04.039-.05.04-.052.03-.041.045-.067c.007-.011.014-.02.02-.032a.976.976 0 0 0 .05-.077l.014-.027.05-.088.01-.017a2.923 2.923 0 0 0 .234-.58V5.31c.024-.083.043-.167.06-.252h1.455V22.63L18.5 27.19l-11.214-4.56V5.059zM2.34 9.124l3.856-1.85v14.913l-4.473-1.82-.266-.106v-9.738c0-.593.347-1.142.883-1.399zM33.1 35.394H3.9a2.447 2.447 0 0 1-2.444-2.444V21.438l.37.15 16.469 6.698c.132.053.279.053.411 0l16.467-6.697.371-.15V32.95a2.447 2.447 0 0 1-2.444 2.443z"/>
        <path d="M3.327 23.672c-.3 0-.546.244-.546.545v8.733a.546.546 0 0 0 1.09 0l.001-8.732a.545.545 0 0 0-.545-.546z"/>
        <path fill-rule="nonzero" d="M15.97 14.875a2.065 2.065 0 0 0 2.062-2.063v-1.387a2.065 2.065 0 0 0-2.061-2.063 2.067 2.067 0 0 0-2.065 2.063v1.387c0 1.138.927 2.063 2.065 2.063zm-.972-3.45a.973.973 0 0 1 1.944 0v1.387a.973.973 0 0 1-1.944 0v-1.387zM21.03 17.42a2.066 2.066 0 0 0-2.064 2.063v1.387a2.064 2.064 0 0 0 4.126 0v-1.387a2.065 2.065 0 0 0-2.063-2.063zM22 20.87a.974.974 0 0 1-.972.971.974.974 0 0 1-.971-.971v-1.387c0-.537.436-.973.971-.973.536 0 .972.437.972.973v1.387z"/>
        <path d="M14.702 22.097a.548.548 0 0 0 .754-.166l7.007-10.98a.546.546 0 0 0-.92-.587l-7.006 10.98a.543.543 0 0 0 .165.753z"/>
    </g>
</svg>
