<svg xmlns="http://www.w3.org/2000/svg" width="44" height="32" viewBox="0 0 44 32">
    <g fill="#A49F9F" fill-rule="nonzero">
        <path d="M43.715 12a.785.785 0 0 0-.325-.5L27.735.605a.785.785 0 0 0-1.09.195l-2.3 3.3a.785.785 0 0 0 .195 1.09l.365.255-2.85 4.095a.785.785 0 1 0 1.285.895l2.85-4.095.665.46L24 10.9a.785.785 0 0 0 1.285.895l2.85-4.095.665.46-2.85 4.095a.785.785 0 1 0 1.285.895l2.85-4.095.665.445-2.85 4.095a.786.786 0 1 0 1.285.905l2.85-4.095.665.46-2.85 4.095a.785.785 0 1 0 1.285.895L34 11.775l.665.46-2.85 4.095a.785.785 0 0 0 1.285.895l2.85-4.095.665.46-2.85 4.095a.785.785 0 1 0 1.285.895l2.835-4.08.665.46-2.85 4.095a.788.788 0 1 0 1.3.89l2.85-4.095.365.255a.785.785 0 0 0 1.09-.195l2.3-3.3c.12-.18.16-.4.11-.61zm-3.265 2.35l-.36-.25-1.94-1.355-1.96-1.345-1.94-1.355-1.945-1.355-1.94-1.355L28.42 5.98l-1.945-1.355-.36-.25 1.405-2 14.375 10-1.445 1.975zM40.845 25.785c-.64-2.345-3.415-3-6.63-3.765a30.375 30.375 0 0 1-4.95-1.5c-3.42-1.47-6.655-4.45-9-6.625-.68-.585-1.265-1.125-1.765-1.545-.875-.745-1.785-1.35-2.5-.85-.435.3-.555.885-.345 1.58v2.03l-2.915 1.685c-2.405 1.39-2.53 1.32-4.625.095-.4-.235-.86-.5-1.4-.8C3.92 14.56 3 14.64 2.5 14.885a1.05 1.05 0 0 0-.5.45c-3.5 4.81-.67 11.235-.095 12.41v2.5c.016.42.36.753.78.755h8.5a.785.785 0 0 0 .815-.775V28a7.165 7.165 0 0 1 1.745 0c1 .095 2.055.78 3.305 1.575.68.43 1.38.875 2.165 1.295.93.5 3.035.675 5.81.675 2.895 0 6.5-.195 10.3-.42 1.175-.08 2.175-.125 2.885-.175 1.62-.07 2.725-.265 3.245-1.03s.215-1.63-.165-2.735c-.14-.405-.29-.87-.445-1.4zm-.685 3.25c-.04.045-.32.275-2 .35-.73.03-1.74.09-2.915.165-4.415.265-13.605.82-15.275-.07-.73-.39-1.41-.82-2.065-1.235-1.36-.86-2.64-1.675-4-1.81-.375-.035-.715-.05-1-.05a5.605 5.605 0 0 0-1.96.28.785.785 0 0 0-.5.73v2.055H3.47v-1.89a.79.79 0 0 0-.09-.365C3.345 27.13.065 20.73 3.225 16.32c.27.03 1 .205 2.725 1.14.53.29.975.55 1.365.78 2.385 1.39 3.135 1.685 6.2-.09l3.305-1.915c.242-.14.39-.4.39-.68V13.32l.275.225c.5.41 1.055.935 1.7 1.53.5.46 1.035.955 1.605 1.465L18 19.89a.785.785 0 0 0 1.205 1l2.765-3.32c.5.425 1 .855 1.555 1.27l-2.5 3a.785.785 0 0 0 1.205 1l2.545-3.055v-.03A21.585 21.585 0 0 0 28.645 22a31.895 31.895 0 0 0 5.21 1.55c2.725.65 5.08 1.205 5.5 2.655.155.565.325 1.06.475 1.5.173.425.284.873.33 1.33z"/>
    </g>
</svg>
