<svg xmlns="http://www.w3.org/2000/svg" width="39" height="38" viewBox="0 0 39 38">
    <g fill="#A49F9F" fill-rule="evenodd">
        <path fill-rule="nonzero" d="M27 7.123h-.342V3.444A3.46 3.46 0 0 0 25.642 1a3.423 3.423 0 0 0-2.44-1H3.432A3.441 3.441 0 0 0 0 3.444v25.333c-.004.708.32 1.377.876 1.81L9 36.927a2.253 2.253 0 0 0 2.784 0l8.154-6.376c.556-.434.88-1.102.876-1.81v-.464A11.267 11.267 0 0 0 27 30.098c6.311 0 11.427-5.143 11.427-11.487S33.311 7.123 27 7.123zm-6.36-5.97l-.102.114-.102.138-.09.127-.09.15-.078.134c0 .054-.054.108-.078.162l-.06.133c0 .06-.042.12-.066.181-.024.06-.036.09-.048.133a2.454 2.454 0 0 0-.048.199c-.012.066 0 .084-.03.126-.03.043 0 .151-.036.224-.036.072 0 .078 0 .114a3.487 3.487 0 0 0 0 .35v25.333c.003.381-.172.741-.474.972l-8.184 6.351c-.437.35-1.057.35-1.494 0l-8.142-6.37a1.209 1.209 0 0 1-.474-.97V3.42a2.406 2.406 0 0 1 2.4-2.413h17.292l-.096.145zm.174 2.291a2.405 2.405 0 0 1 2.385-2.143c1.222 0 2.249.923 2.385 2.143v3.794l-.216.03-.24.036-.564.109-.18.036c-.244.057-.484.12-.72.193l-.162.055-.546.193-.228.09-.492.211-.204.097a17.47 17.47 0 0 0-.666.343h-.03a8.808 8.808 0 0 0-.51.308l-.012-5.495zM27 29.043a10.242 10.242 0 0 1-6.156-2.033V10.218l.222-.163.282-.193.312-.211.294-.175.354-.187.3-.15.366-.158.306-.126.384-.133.306-.103.408-.108.3-.079.462-.09.264-.048c.244-.037.49-.065.738-.085.27 0 .546-.036.822-.036 5.733 0 10.38 4.672 10.38 10.435 0 5.763-4.647 10.435-10.38 10.435H27z"/>
        <path d="M3.6 25.532a.52.52 0 0 0 .738 0l12.87-12.926a.527.527 0 0 0-.229-.888.52.52 0 0 0-.509.146L3.6 24.79a.527.527 0 0 0 0 .742z"/>
        <path fill-rule="nonzero" d="M16.578 20.46a3.22 3.22 0 0 0-3.69.353 3.262 3.262 0 0 0-.936 3.606 3.235 3.235 0 0 0 3.57 2.078 3.221 3.221 0 0 0 2.556-2.207c.05-.15.088-.303.114-.459v-.03a3.257 3.257 0 0 0-1.596-3.335l-.018-.006zm.48 3.504a2.176 2.176 0 0 1-2.582 1.447 2.19 2.19 0 0 1-1.639-2.472A2.18 2.18 0 0 1 15.16 21.1a2.185 2.185 0 0 1 2.006 2.183 2.2 2.2 0 0 1-.108.687v-.006zM5.844 17.36a3.243 3.243 0 0 0 3.228-3.256 3.243 3.243 0 0 0-3.236-3.247 3.243 3.243 0 0 0-3.232 3.251c0 .864.342 1.691.95 2.301.607.61 1.431.952 2.29.95zm0-5.43a2.19 2.19 0 0 1 2.023 1.36 2.21 2.21 0 0 1-.474 2.4 2.182 2.182 0 0 1-2.387.476 2.202 2.202 0 0 1-1.352-2.034 2.208 2.208 0 0 1 .633-1.572 2.184 2.184 0 0 1 1.557-.653v.024zM31.656 11.708h-9.36a.523.523 0 0 0-.522.524V14.2c0 .29.234.524.522.524h.288v.091c0 .03.03.175.048.26.018.084.054.259.09.385.036.127.054.17.084.254.03.084.09.235.144.356.054.12.078.162.12.24.042.08.126.218.192.327l.15.223c.078.102.156.199.246.295l.18.193c.096.097.198.181.3.266l.192.163c.12.09.246.162.372.24l.18.115c.193.106.394.196.6.272.026.008.05.02.072.036v.32s-.042.054-.084.066a4.365 4.365 0 0 0-2.562 2.377l-.06.15c-.048.121-.096.248-.132.374l-.048.175c-.036.133-.06.266-.084.404-.024.14 0 .097 0 .145v.042h-.288a.523.523 0 0 0-.522.525v1.966c0 .29.234.525.522.525h9.36a.523.523 0 0 0 .522-.525v-1.966a.523.523 0 0 0-.522-.525h-.288v-.09c0-.03-.03-.175-.048-.26-.018-.084-.054-.259-.09-.385a1.686 1.686 0 0 0-.09-.254c-.036-.084-.09-.235-.144-.35-.054-.114-.078-.163-.12-.247a4.107 4.107 0 0 0-.192-.32l-.156-.223a3.829 3.829 0 0 0-.24-.29c-.084-.09-.12-.132-.18-.198a3.533 3.533 0 0 0-.294-.266l-.198-.163a7.684 7.684 0 0 0-.366-.24l-.186-.116a4.41 4.41 0 0 0-.6-.271.223.223 0 0 1-.162-.211.229.229 0 0 1 .168-.217c.206-.076.407-.166.6-.272l.18-.108c.128-.074.252-.155.372-.241l.192-.157c.102-.085.204-.175.3-.266l.174-.193a5.82 5.82 0 0 0 .246-.295l.15-.223c.072-.109.132-.212.192-.326.06-.115.084-.157.12-.241.036-.085.102-.236.144-.356.042-.12.06-.17.084-.254.024-.084.066-.253.09-.386.024-.132.036-.169.048-.259.012-.09 0-.06 0-.09h.288a.523.523 0 0 0 .522-.525v-1.967a.523.523 0 0 0-.516-.524zm-.78 11.816h.258v.91H22.8v-.91h8.076zm-.564-8.819v.055a3.41 3.41 0 0 1-.102.422c0 .054-.042.108-.06.163a2.338 2.338 0 0 1-.12.29c-.048.09-.06.114-.09.174-.03.06-.096.17-.15.248l-.114.162c-.056.077-.118.151-.186.224l-.138.144c-.072.073-.144.133-.222.2l-.15.12c-.09.066-.18.12-.276.18l-.138.085c-.147.08-.3.149-.456.205-.515.175-.863.66-.863 1.207 0 .546.348 1.032.863 1.206.157.057.31.126.456.205l.138.085c.096.054.186.114.276.18l.15.121c.078.06.15.127.222.2l.138.144c.064.072.124.147.18.223l.12.163c.054.079.102.163.15.253s.066.115.09.175c.024.06.084.193.12.29.036.096.042.108.06.163.043.138.077.28.102.422v.054H23.64v-.078c.03-.162.073-.321.126-.477l.054-.15a3.308 3.308 0 0 1 2.01-1.967c.308-.101.565-.317.72-.603a1.26 1.26 0 0 0 0-1.206 1.262 1.262 0 0 0-.708-.604 3.351 3.351 0 0 1-.456-.205l-.138-.084a2.181 2.181 0 0 1-.276-.181l-.144-.12c-.078-.067-.156-.133-.228-.2l-.132-.144a3.555 3.555 0 0 1-.186-.23l-.114-.162c-.054-.085-.102-.17-.15-.254a2.654 2.654 0 0 1-.09-.169 3.256 3.256 0 0 1-.12-.295c-.036-.103-.042-.103-.06-.157a3.393 3.393 0 0 1-.102-.428v-.055h6.666v.006zm.822-1.055H22.8v-.893h8.334v.893z"/>
    </g>
</svg>
