<svg xmlns="http://www.w3.org/2000/svg" width="36" height="26" viewBox="0 0 36 26">
    <path fill="#A49F9F" fill-rule="nonzero" d="M22.746.222c-3.28 0-5.946 2.736-5.946 6.087 0 3.351 2.666 6.087 5.946 6.087 7.277 0 11.956-7.319 11.956-7.319a.616.616 0 0 0-.015-.692.596.596 0 0 0-.644-.23c-2.075.57-3.333-.271-4.943-1.398C27.49 1.63 25.61.222 22.746.222zm0 1.218c2.482 0 4.037 1.176 5.672 2.32 1.275.892 2.756 1.511 4.488 1.527-.977 1.331-4.532 5.892-10.16 5.892-2.203 0-4.033-1.537-4.57-3.624 1.138.386 2.573.423 3.872.407a31.12 31.12 0 0 0 2.972-.186.602.602 0 0 0 .48-.364.617.617 0 0 0-.07-.605.597.597 0 0 0-.551-.241s-1.31.158-2.845.178c-1.537.02-3.326-.169-4.013-.575a.6.6 0 0 0-.007-.005c.076-2.63 2.156-4.724 4.732-4.724zM.605 9.664c-.332 0-.6.273-.6.609V22.67c0 .336.268.609.6.609H7.17c.33 0 .6-.273.6-.609v-.901l11.207 3.852.047.014c1.305.336 2.81.135 3.95-.642l11.606-6.398h.007l.286-.162a2.253 2.253 0 0 0 .951-2.806c-.368-.883-1.091-1.285-1.657-1.37v-.002c-.565-.084-1.029.079-1.029.079a.595.595 0 0 0-.058.024l-6.399 3.01c.008-.082.026-.161.026-.245a2.483 2.483 0 0 0-2.47-2.48h-5.328c-.022-.04-.05-.097-.07-.136a6.155 6.155 0 0 0-1.064-1.419 6.183 6.183 0 0 0-4.371-1.793H7.77v-1.022a.604.604 0 0 0-.6-.609H.605zm.6 1.217H6.57v11.18H1.205v-11.18zm6.565 1.632h5.634a4.978 4.978 0 0 1 4.385 2.584c.094.172.158.275.209.395l.154.368H24.237c.718 0 1.27.558 1.27 1.263 0 .52-.302.953-.748 1.148l-.035.017c-.15.06-.313.098-.487.098H15.89v1.217h8.346c.242 0 .472-.048.693-.114a.593.593 0 0 0 .23-.064l8.37-3.938c.006 0 .21-.069.464-.03.257.037.505.109.726.641.198.476.02 1.007-.438 1.27l-.281.162-11.649 6.422a.599.599 0 0 0-.049.03c-.791.54-2.02.718-2.981.471h-.002L7.77 20.485v-7.972z"/>
</svg>
