<svg xmlns="http://www.w3.org/2000/svg" xmlns:xlink="http://www.w3.org/1999/xlink" width="39" height="37" viewBox="0 0 39 37">
    <defs>
        <path id="a" d="M.4.302h4.01v3.966H.4z"/>
    </defs>
    <g fill="none" fill-rule="evenodd">
        <g transform="translate(34.168 2.912)">
            <mask id="b" fill="#fff">
                <use xlink:href="#a"/>
            </mask>
            <path fill="#282321" d="M2.406 3.835c.866 0 1.567-.694 1.567-1.549 0-.853-.7-1.547-1.567-1.547A1.56 1.56 0 0 0 .84 2.286a1.56 1.56 0 0 0 1.565 1.549M.4 2.286C.4 1.189 1.299.302 2.406.302c1.109 0 2.005.887 2.005 1.984a1.993 1.993 0 0 1-2.005 1.982C1.299 4.268.4 3.38.4 2.286" mask="url(#b)"/>
        </g>
        <path fill="#282321" d="M36.241 5.088h.275c.1 0 .213.008.3-.044a.284.284 0 0 0 .125-.24.263.263 0 0 0-.118-.214c-.087-.053-.227-.039-.321-.039h-.261v.537zm0 1.19h-.493V4.175h.894c.189 0 .382.004.546.11a.62.62 0 0 1 .268.522c0 .24-.14.461-.367.542l.391.929h-.55l-.327-.83h-.362v.83zM34.623 15.902l-1.597.447c.422.837 1.387 2.51 1.387 2.51l-1.93.058-1.716-2.03c-.843.18-2.759.605-2.759.605l.771 1.425-1.389.163-1.08-1.386s-3.947 1.134-5.877 1.732l-.12.178c.03 2.151.18 4.27.422 6.33l.181.45c3.675.685 7.381.865 11.267 1.074l.362-.15c1.054-1.492 1.657-3.165 2.23-4.867.602-1.97.751-4.688-.152-6.539zM2.81 15.006c-.271.597-.24 1.462-.181 2.091.361-.568 1.225-1.7 1.225-1.7l-1.044-.39zm10.815-.09L9.107 18.59l-2.17.09s.878-.975 1.18-1.512c-.783-.359-1.66-.727-2.474-.967l-1.598 2.12c-.512.06-1.084 0-1.475.18-.121 1.76.269 3.403.601 5.047.152.417.273 1.135.904 1.074 4.46 0 8.646.687 13.045 1.134v-6.689c-.211-.447-.796-1.252-1.097-1.61l-2.037 1.194-3.734.03c-.031-.061 3.074-1.763 4.49-2.688-.392-.389-.636-.837-1.117-1.076zm10.123-.448l-1.327 2.15 1.507-.137 1.348-2.203-1.528.19zM2.336 12.864l2.488 1.142.779-1.28-3.267.138zm5.89-.428l-1.41 2.152 2.866 1.098 2.378-2.054-.905-.954-2.93-.242zm10.46-.177l-1.006.484.063 1.383.823.283.12-2.15zm-3.674-1.463l-.816 1.612 1.569 1.762a40.65 40.65 0 0 0-.753-3.374zm5.662.447l.152 3.464 2.62-3.314c.235-.245.314-.693.314-.693l-.499-1.564-2.587 2.107zm7.517-2.201l-1.22.141-1.912 3 1.239-.036 1.893-3.105zM12.452 7.633l.119 3.372 1.295-2.926-1.414-.446zm9.864-.793l-.841.556.176.62.77-.708-.105-.468zM7.63 5.988l2.895 3.21V6.792L7.63 5.988zm4.731-2.18V5.63l.903.208c-.21-.716-.574-1.374-.903-2.03zm5.632-.21L16.06 7.237l1.15 3.739L18.9 9.8l.45-3.126c-.452-1.045-.875-2.12-1.357-3.076zm2.712 1.733l.996-.21S20.193 1.779 19.56.077a5.19 5.19 0 0 1 1.536.118c.755 1.264 2.107 3.763 2.107 3.763s2.352-1.313 3.556-1.941c.362.06.723.299.994.567l-3.609 3.172 1.059 2.96s2.55-3.563 3.817-5.265c.45.06.813.447 1.083.776-.512.926-1.295 1.792-1.687 2.687 1.538.12 3.073.061 4.579.18.393.447.844.956 1.025 1.523l-3.826.298-1.822 3.124 2.478-.54s1.93-.796 3.953-1.568c.362.477.573.985.722 1.552l-4.125 1.643-3.676.776c-.542.598-.845 1.284-1.266 1.911 3.284-.597 6.478-1.642 9.792-2.299 1.474 4.927.633 10.48-2.05 14.632-8.946 2.239-18.436-.598-27.686.627l-2.68.329C1.935 26.8.972 23.994.46 21.068c-.453-3.194-.09-6.659 1.084-9.496.268-.038 4.35-.4 4.35-.4l-2.51-3.004c.09-.508.54-.896.873-1.315 1.31 1.358 3.765 4.122 3.765 4.122l1.386-.12-4.31-4.867c.424-.657 1.147-1.344 1.78-1.791l3.644.657s-.03-1.942.03-3.016c.753-.419 1.596-.776 2.41-.927.724 1.284 1.267 2.658 2.05 3.943.933-1.495 1.745-3.166 2.59-4.778.091-.06.271-.12.391-.03l2.712 5.285zm.155 27.874c2.44.269 4.91.478 7.35.778-5.09 3.522-13.195 3.581-18.467.506-1.446-.895-2.983-1.851-4.127-3.195.06-.18.361-.03.543-.12l3.493.299 11.208 1.732zm12.623-3.972c-1.115 1.495-2.56 3.017-4.188 4.092-8.435-.12-16.177-2.39-24.402-2.777-.272-.24-.542-.508-.633-.866 6.418-1.105 12.925-.478 19.281-.09 3.314.148 6.81-.06 9.97-.656l-.028.297z"/>
    </g>
</svg>
