<svg xmlns="http://www.w3.org/2000/svg" xmlns:xlink="http://www.w3.org/1999/xlink" width="219" height="39" viewBox="0 0 219 39">
    <defs>
        <path id="a" d="M.418.319h4.187v4.18H.418z"/>
        <path id="c" d="M0 .062h115.72v37.102H0z"/>
    </defs>
    <g fill="none" fill-rule="evenodd">
        <g transform="translate(214.176 3.07)">
            <mask id="b" fill="#fff">
                <use xlink:href="#a"/>
            </mask>
            <path fill="#282321" d="M2.512 4.042c.905 0 1.636-.732 1.636-1.632a1.634 1.634 0 0 0-3.27 0c0 .9.736 1.632 1.634 1.632M.418 2.41c0-1.156.938-2.092 2.094-2.092a2.09 2.09 0 1 1 0 4.181A2.093 2.093 0 0 1 .418 2.41" mask="url(#b)"/>
        </g>
        <path fill="#282321" d="M216.34 5.363h.288c.104 0 .223.008.314-.046a.3.3 0 0 0 .13-.253.278.278 0 0 0-.124-.226c-.09-.055-.237-.041-.335-.041h-.272v.566zm0 1.254h-.514V4.401h.934c.197 0 .398.004.57.115.18.119.28.335.28.55a.599.599 0 0 1-.384.572l.408.979h-.575l-.34-.875h-.378v.875zM156.79 7.11c.9 0 1.633-.73 1.633-1.63 0-.898-.734-1.63-1.633-1.63a1.63 1.63 0 1 0 0 3.26m-2.093-1.63c0-1.155.938-2.09 2.093-2.09s2.095.935 2.095 2.09c0 1.153-.94 2.087-2.095 2.087a2.09 2.09 0 0 1-2.093-2.088"/>
        <path fill="#282321" d="M156.44 5.363h.288c.104 0 .219.008.316-.046a.304.304 0 0 0 .127-.252c0-.087-.049-.18-.123-.226-.09-.055-.238-.041-.336-.041h-.271v.565zm0 1.254h-.515V4.403h.932c.2 0 .4.004.573.115a.661.661 0 0 1 .28.55.598.598 0 0 1-.383.57l.407.979h-.576l-.34-.875h-.377v.875zM214.651 16.762l-1.667.47c.44.883 1.448 2.646 1.448 2.646l-2.014.062-1.792-2.14c-.881.19-2.881.637-2.881.637l.804 1.503-1.45.172-1.128-1.461s-4.121 1.195-6.136 1.825l-.125.188c.031 2.267.188 4.5.44 6.673l.19.472c3.837.723 7.706.913 11.764 1.133l.378-.158c1.1-1.573 1.73-3.336 2.329-5.13.627-2.077.784-4.941-.16-6.892zm-33.217-.945c-.283.63-.25 1.542-.19 2.205.378-.6 1.28-1.792 1.28-1.792l-1.09-.413zm11.293-.094l-4.718 3.871-2.266.095s.916-1.028 1.232-1.594c-.818-.378-1.734-.766-2.583-1.02l-1.669 2.236c-.534.063-1.131 0-1.54.189-.126 1.856.281 3.587.628 5.32.158.44.285 1.196.944 1.132 4.656 0 9.028.724 13.62 1.195v-7.05c-.22-.472-.83-1.32-1.145-1.697l-2.126 1.258-3.9.031c-.032-.064 3.21-1.858 4.688-2.833-.409-.41-.663-.882-1.165-1.133zm10.569-.473l-1.385 2.267 1.573-.145 1.408-2.322-1.596.2zm-22.357-1.69l2.598 1.203.813-1.35-3.41.147zm6.15-.452l-1.471 2.268 2.992 1.158 2.482-2.165-.945-1.006-3.058-.255zm10.922-.186l-1.05.51.065 1.458.86.298.125-2.266zm-3.836-1.542l-.852 1.699 1.638 1.857a43.195 43.195 0 0 0-.786-3.556zm5.912.47l.158 3.652 2.736-3.493c.246-.259.328-.731.328-.731l-.521-1.648-2.701 2.22zm7.849-2.32l-1.274.15-1.997 3.162 1.294-.039 1.977-3.272zm-16.434-1.484l.124 3.554 1.352-3.085-1.476-.47zm10.3-.836l-.88.586.184.653.805-.747-.11-.492zm-15.335-.899l3.023 3.383V7.16l-3.023-.849zm4.94-2.297v1.92l.942.22c-.219-.755-.598-1.448-.942-2.14zm5.88-.22l-2.02 3.833 1.202 3.94 1.766-1.237.469-3.294c-.472-1.102-.913-2.235-1.416-3.243zm2.832 1.825l1.04-.22s-1.574-3.525-2.235-5.319c.567-.032 1.1 0 1.604.125.788 1.332 2.2 3.966 2.2 3.966s2.456-1.384 3.713-2.046c.379.063.755.315 1.038.598l-3.768 3.343 1.105 3.12s2.663-3.755 3.986-5.55c.47.063.849.471 1.131.818-.535.977-1.353 1.889-1.762 2.833 1.606.127 3.21.064 4.781.189.41.472.882 1.008 1.07 1.605l-3.995.315-1.902 3.293 2.587-.57s2.017-.838 4.128-1.652c.378.503.598 1.038.755 1.636l-4.308 1.732-3.838.817c-.566.63-.882 1.354-1.322 2.015 3.429-.63 6.764-1.73 10.224-2.424 1.54 5.194.66 11.048-2.14 15.423-9.342 2.36-19.25-.63-28.908.661l-2.799.346c-1.983-2.424-2.989-5.382-3.524-8.466-.472-3.367-.095-7.019 1.132-10.01.28-.04 4.541-.42 4.541-.42l-2.62-3.168c.094-.535.565-.944.912-1.385 1.367 1.43 3.931 4.344 3.931 4.344l1.447-.126-4.5-5.13c.442-.693 1.198-1.417 1.858-1.888l3.806.692s-.032-2.046.032-3.179c.785-.44 1.666-.818 2.515-.977.756 1.353 1.323 2.802 2.141 4.156.974-1.575 1.822-3.337 2.705-5.036.094-.063.282-.126.408-.032l2.83 5.57zM200.28 35c2.547.283 5.126.503 7.675.82-5.316 3.713-13.778 3.775-19.283.534-1.51-.944-3.114-1.952-4.309-3.369.064-.188.377-.031.567-.126l3.647.315L200.281 35zm13.18-4.186c-1.164 1.575-2.673 3.18-4.373 4.312-8.807-.126-16.89-2.518-25.479-2.927-.284-.252-.566-.535-.66-.913 6.7-1.164 13.495-.503 20.131-.094 3.46.156 7.11-.064 10.41-.692l-.029.314zM121.342 27.448c-.35.512-.33 2.544-.136 4.369.198 1.83 1.214 2.28 2.302 2.325.807.035 1.485-.682 1.485-1.834 0-.788-.164-5.874-.56-6.614-.395-.741-1.111-.136-1.63.154-.597.364-1.116 1.089-1.46 1.6zm13.53 5.895c0-.44-.113-12.821-.113-13.659 0-1.028-1.56-1.575-1.631-2.05-.083-.59.457-.92 1-1.286.544-.365 4.151-1.845 5.211-2.26 1.067-.415 1.706.53 1.834.93.13.402.534.425.785.234.266-.194.84-1.471 2.85-1.471 3.062 0 4.828 4.35 5.299 5.845.462 1.491 1.945 10.078 1.931 13.817-.004 1.398.409 1.682 1.112 2.47.715.794-.27 1.687-.96 1.687s-6.106.059-6.695.01c-.593-.048-1.102-.17-1.348-.86s.287-.947.771-1.296c.999-.714.707-3.407.525-5.515-.183-2.11-1.262-7.632-1.92-9.131-.366-.844-.929-1.653-1.525-1.653-.586 0-.765.917-.765 1.559 0 .642.02 11.435 0 12.928-.016 1.492.934 2.03 1.26 2.288.675.534.01 1.672-.933 1.667-.639-.005-5.706-.03-6.087.003-.386.034-1.546-.108-1.841-.356-.294-.244-.593-.257-.84-.063-.246.2-.934.751-2.458.95-1.525.197-3.04-1.307-3.41-1.634-.373-.324-1.298-.253-1.827.303-1.103 1.15-3.266 1.54-4.381 1.411-3.775-.432-6.662-3.964-5.653-8.825.67-3.233 4.935-5.75 6.215-6.242.535-.256 1.08-.341 1.646-.498 1.209-.33 1.14-.78 1.253-1.535.185-1.272-.284-2.375-.833-3.308-.549-.933-2.128-.799-2.606-.749-.484.049-.755.353-.508.597.248.248.831 1.085.943 1.975.205 1.588-1.31 2.68-2.95 2.592-3.05-.175-3.777-3.518-2.152-5.64 1.623-2.123 4.627-2.316 6.587-2.348 6.106-.1 6.852 2.498 7.574 5.497.596 2.477.974 11.681.988 12.534.016.85.394 1.365 1.083 1.365.69 0 .908 1.08 1.052 1.575.146.5.745.36.994.002.253-.362.523-1.277.523-1.76v-.1z"/>
        <g transform="translate(0 .662)">
            <mask id="d" fill="#fff">
                <use xlink:href="#c"/>
            </mask>
            <path fill="#282321" d="M80.186 23.461c.343 1.182 1.353.576 2.405.06 1.056-.52 1.765-1.598 1.468-3.422-.296-1.826-1.265-3.637-2.456-4.086-.626-.234-1.182.673-1.527 1.346-.552.984-.238 4.92.11 6.102zm-13.414 7.98c1.291 0 2.337-3.328 2.337-7.43 0-4.104-1.046-7.43-2.337-7.43-1.292 0-2.338 3.326-2.338 7.43 0 4.102 1.046 7.43 2.338 7.43zm-8.01-22.339c-.043-.99-.139-2.448-.442-3.08-.418-.784-1.17-1.072-.954-1.955.12-.494.845-.877 1.298-1.056.452-.182 3.258-1.227 3.66-1.369.4-.144 1.144-.457 1.438-.703.29-.249.579-.215.95-.106.37.11.855.415.948 2.212.046.924-.13 9.42.155 10.27.282.846.938.213 1.306.028 1.908-.957 4.353.27 5.758 1.764 1.456 1.546 2.805 5.684 3.09 8.307.6-4.619 1.928-9.656 7.355-10.332 3.623-.454 5.096 1.641 6.214 3.298 1.087 1.61 2.204 5.04 1.195 6.974-.667.331-7.356 3.03-7.625 3.096-.269.065-.57.224-.684.632-.108.407.462 1.83.462 1.83.769 2.292 2.39 2.356 3.573 2.58 1.183.22 1.57-.671 1.681-1.413.11-.74.649-1.22 1.424-1.183 1.25.153 2.36 1.517 2.164 2.371-.114.48-.713 2.15-.836 2.442-.124.29-.295.813.012.873.808.168 1.12-.574 1.12-1.098 0-.52.016-5.069.014-6.18-.002-1.107.024-6.513-.018-8.028-.04-1.52-.79-1.933-1.28-2.22-.487-.282-.576-.698-.356-1.07.226-.37 1.111-.841 1.434-.978.323-.13 4.764-1.74 5.349-1.958.586-.22 1.526.182 1.712.46.184.282.22 1.877.226 2.691.008.816.582.56.916.08.33-.48 1.69-2.336 3.495-2.844 1.54-.431 2.83.227 3.273.3.44.073.57-.103.57-.718 0-.617.013-3.996.011-4.554-.007-2.293-.678-2.144-1.212-2.848-.83-1.093.222-1.53.713-1.817.49-.286 2.535-1.086 2.91-1.225.382-.178 2.31-1.028 3.225-1.196.698-.131 1.329.721 1.308 2.167-.014.997.068 29.199.05 29.754-.015.556.27 1.204.78 1.485.513.28.738.91.445 1.612-.297.706-1.475.708-1.842.669-.372-.041-5.356.002-6.168.01-.812.006-1.255-.295-1.375-.547-.428-.888-.102-1.525.373-1.77.41-.209.777-.756.777-1.425 0-.663-.012-12.025-.022-12.543-.002-.518-.23-.815-.416-.63-.183.185-.385.565-1.052.787-.663.22-1.93-.37-1.967-.853-.039-.48-.34-1.307-.895-1.38-.554-.074-1.42.637-1.795 1.014-.968.965-2.08 3.21-2.114 5.464-.018 1.297.028 6.96.018 7.92-.012.964.393 1.325 1.058 1.734.665.409.178 1.198-.195 1.638-.38.436-2.103.379-3.21.373-1.108-.004-3.4-.083-4.765-.045-1.366.037-1.18-.86-1.402-1.227-.221-.37-.545-.083-.896.231-.587.52-1.944 1.113-2.7 1.195-4.461.502-5.707-.269-7.608-1.935-1.581-1.385-2.898-4.998-3.243-6.925-.11 2.073-1.02 5.446-2.362 7.041-1.775 2.117-4.716 1.968-6.638 1.7-1.92-.264-2.942-1.622-3.421-2.138-.482-.517-.741-.173-1.003-.046-.26.126-.506.756-.91 1.36-.404.6-1.37.813-1.78.779a3.557 3.557 0 0 1-1.239-.375c-.142.078-.349.126-.645.126h-7.556c-.562 0-.794-.37-.905-.746-.197-.664.452-.847.664-1.008.22-.173.545-.721.64-1.267.343-2.018-.335-8.204-.536-9.82-.2-1.616-.675-5.9-2.227-5.9-.559 0-1.018.563-1.182 1.31-.216.994-.06 8.265-.06 9.401 0 1.136-.07 3.9.104 4.614.173.716.58 1.516.919 1.72.397.237.846 1.238-.34 1.626-.67.214-6.848.11-7.342.038-.413-.022-.939-.274-.939-1.21.059-.291.591-.593.798-.784.205-.188.706-.618.719-1.239.014-.625.004-12.537.004-13.45 0-.914.059-2.404-1.494-2.377-.9.014-1.611.607-1.938 2.01-.098.423.005 1.257.005 1.674l-.003 11.102c0 .66.106 1.41.438 1.78.332.372.726.776.898.924.172.149.18.77-.09 1.066-.275.298-.435.494-1.107.512 0 0-6.43-.044-7.111-.017-.978.034-1.275-.36-1.554-.721-.222.167-.414.675-1.35.724-.936.05-6.492.043-7.065.04-.979-.01-1.303-.39-1.451-.483-.15-.091-.396-.195-.739.025a1.503 1.503 0 0 1-.262.138 1.367 1.367 0 0 1-.865.302H8.28c-1.07 0-1.859-1.222-.657-1.967.587-.362 1.014-1.306 1.014-2.376V6.923c0-.967-.11-2.403-1.242-2.059C6.26 5.21 5.56 6.608 5.14 7.541c-.424.93-1.29 2.624-1.574 3.21-.443.924-1.437 1.038-2.209.973-.786-.066-1.553-1.14-1.313-1.949.21-1.025 1.69-7.863 1.937-8.753.246-.89.488-.79 1.08-.94.59-.146 1.13.564 2.062.776.717.16 4.267.046 7.622.085 3.368-.039 6.921.076 7.637-.085.93-.212 1.469-.922 2.062-.776.59.15.833.05 1.077.94.25.89 1.728 7.728 1.936 8.753.243.808-.526 1.883-1.307 1.949-.772.065-1.769-.049-2.213-.973-.282-.586-1.149-2.28-1.571-3.21-.421-.933-1.125-2.33-2.255-2.677-1.134-.344-1.241 1.092-1.241 2.059v25.13c.007.841.567 2.451 1.652 2.64.697.073 1.718-.425 1.718-2.125 0-1.722.026-11.03.026-12.365 0-.832.009-2.19-.738-2.684-.48-.317-1.1-.866-1.027-1.289.075-.42.544-.884.935-1.058.393-.172 2.293-.882 2.786-1.056 1.278-.466 2.948-1.072 3.71-1.121.762-.051 1.25.455 1.25 1.189v18.109c0 .613.095 1.509.71 1.983.698.534 1.008 1.293 2.028 0 .215-.273.615-.596.615-1.956V19.168s-.059-1.008-.43-1.307c-.372-.299-1.11-.72-1.293-1.133-.243-.537.068-1.12.755-1.42.69-.294 5.229-1.931 5.597-2.074.366-.145 1.03-.237 1.349-.138.322.099.755.224.782.816.023.59.108 1.246.649 1.246s1.244-1.177 1.605-1.44c.361-.268 1.716-.884 3.217-.689 1.501.2 2.146.249 3.32 1.85.406.545.987.387 1.346-.122.355-.509.95-1.207 1.52-1.374.614-.18 2.415-.569 3.727.177 1.069.607 2.152 1.508 2.82 3.902.66 2.398 1.723 8.348 1.808 10.96.088 2.509.264 5.653.746 6.116.214.208.432.378.611.536.069-.294.092-.643.117-1.032.04-.633-.009-4.406-.02-6.034-.012-1.63.011-18.06 0-18.8v-.106z" mask="url(#d)"/>
        </g>
        <path fill="#282321" d="M160.372 32.688c1.29 0 2.341-3.325 2.341-7.43 0-4.106-1.05-7.43-2.341-7.43-1.297 0-2.344 3.324-2.344 7.43 0 4.105 1.047 7.43 2.344 7.43m-2.028-18.89c1.106-.192 2.468.068 3.17.718.664.615.815-.165.815-.575 0-.409.048-4.368.048-4.923 0-.554-.151-1.551-.496-1.954-.35-.399-1.326-.524-1.385-1.416-.053-.643.622-1.186 1.062-1.22.445-.038 1.186-.149 1.584-.257.408-.112 3.99-1.723 4.325-1.86.33-.135.475-.337 1.026-.337.556 0 .76.84.805 1.271.045.424.087 2.182.087 3.218 0 1.038-.011 24.39-.008 25.093.008.739-.034 1.555.511 1.882.328.196 1.052.597 1.052 1.153s-.35 1.075-.947 1.34c-.685.3-5.559 2.328-6.557 2.169-.692-.111-.828-.512-.864-.846-.036-.332-.225-.402-.534-.288-.31.11-.882.764-1.801 1.208-.922.443-2.576-.005-3.818-.576-4.07-1.866-4.61-7.19-4.196-12.147.319-3.726 1.762-8.512 3.825-10.357.234-.24 1.214-1.111 2.296-1.296"/>
    </g>
</svg>
