<svg xmlns="http://www.w3.org/2000/svg" width="24" height="30" viewBox="0 0 24 30">
    <g fill="#F5A019" fill-rule="evenodd">
        <path fill-rule="nonzero" d="M12 3.108c5.027 0 9.164 3.936 9.567 8.927L12 24.317 2.433 12.035c.403-4.99 4.54-8.927 9.567-8.927zm0-2.433C5.373.675 0 6.121 0 12.838l12 15.405 12-15.405C24 6.12 18.627.675 12 .675z"/>
        <path fill-rule="nonzero" d="M12 15.203c-2.169 0-3.933-1.789-3.933-3.987 0-2.198 1.764-3.987 3.933-3.987 2.169 0 3.933 1.789 3.933 3.987 0 2.198-1.764 3.987-3.933 3.987zm0-5.541c-.846 0-1.533.697-1.533 1.554 0 .857.687 1.554 1.533 1.554.846 0 1.533-.697 1.533-1.554 0-.857-.687-1.554-1.533-1.554z"/>
        <path d="M8 27.568h8V30H8z"/>
    </g>
</svg>
